<svg width="226" height="45" viewBox="0 0 226 45" fill="none" xmlns="http://www.w3.org/2000/svg">
<path d="M13.328 11.456V25.176C13.328 27.08 12.7773 28.564 11.676 29.628C10.5747 30.6733 9.1 31.196 7.252 31.196C5.38533 31.196 3.87333 30.6547 2.716 29.572C1.57733 28.4893 1.008 26.9773 1.008 25.036H4.928C4.94667 25.876 5.14267 26.5293 5.516 26.996C5.908 27.4627 6.468 27.696 7.196 27.696C7.90533 27.696 8.44667 27.472 8.82 27.024C9.19333 26.576 9.38 25.96 9.38 25.176V11.456H13.328ZM32.3208 22.908C32.3208 23.468 32.2834 23.972 32.2088 24.42H20.8688C20.9621 25.54 21.3541 26.4173 22.0448 27.052C22.7354 27.6867 23.5848 28.004 24.5928 28.004C26.0488 28.004 27.0848 27.3787 27.7008 26.128H31.9288C31.4808 27.6213 30.6221 28.8533 29.3528 29.824C28.0834 30.776 26.5248 31.252 24.6768 31.252C23.1834 31.252 21.8394 30.9253 20.6448 30.272C19.4688 29.6 18.5448 28.6573 17.8728 27.444C17.2194 26.2307 16.8927 24.8307 16.8927 23.244C16.8927 21.6387 17.2194 20.2293 17.8728 19.016C18.5261 17.8027 19.4408 16.8693 20.6168 16.216C21.7928 15.5627 23.1461 15.236 24.6768 15.236C26.1514 15.236 27.4674 15.5533 28.6248 16.188C29.8008 16.8227 30.7061 17.728 31.3408 18.904C31.9941 20.0613 32.3208 21.396 32.3208 22.908ZM28.2608 21.788C28.2421 20.78 27.8781 19.9773 27.1688 19.38C26.4594 18.764 25.5914 18.456 24.5648 18.456C23.5941 18.456 22.7728 18.7547 22.1008 19.352C21.4474 19.9307 21.0461 20.7427 20.8968 21.788H28.2608ZM39.102 17.896C39.606 17.0747 40.2593 16.4307 41.062 15.964C41.8833 15.4973 42.8167 15.264 43.862 15.264V19.38H42.826C41.594 19.38 40.6607 19.6693 40.026 20.248C39.41 20.8267 39.102 21.8347 39.102 23.272V31H35.182V15.488H39.102V17.896ZM65.7663 15.264C67.6703 15.264 69.201 15.852 70.3583 17.028C71.5343 18.1853 72.1223 19.8093 72.1223 21.9V31H68.2023V22.432C68.2023 21.2187 67.8943 20.2947 67.2783 19.66C66.6623 19.0067 65.8223 18.68 64.7583 18.68C63.6943 18.68 62.845 19.0067 62.2103 19.66C61.5943 20.2947 61.2863 21.2187 61.2863 22.432V31H57.3663V22.432C57.3663 21.2187 57.0583 20.2947 56.4423 19.66C55.8263 19.0067 54.9863 18.68 53.9223 18.68C52.8396 18.68 51.981 19.0067 51.3463 19.66C50.7303 20.2947 50.4223 21.2187 50.4223 22.432V31H46.5023V15.488H50.4223V17.364C50.9263 16.7107 51.5703 16.1973 52.3543 15.824C53.157 15.4507 54.0343 15.264 54.9863 15.264C56.1996 15.264 57.2823 15.5253 58.2343 16.048C59.1863 16.552 59.9236 17.28 60.4463 18.232C60.9503 17.336 61.6783 16.6173 62.6303 16.076C63.601 15.5347 64.6463 15.264 65.7663 15.264ZM89.1422 11.456V14.62H83.9342V31H80.0142V14.62H74.8062V11.456H89.1422ZM100.738 15.264C101.914 15.264 102.96 15.5253 103.874 16.048C104.789 16.552 105.498 17.308 106.002 18.316C106.525 19.3053 106.786 20.5 106.786 21.9V31H102.866V22.432C102.866 21.2 102.558 20.2573 101.942 19.604C101.326 18.932 100.486 18.596 99.4223 18.596C98.3396 18.596 97.481 18.932 96.8463 19.604C96.2303 20.2573 95.9223 21.2 95.9223 22.432V31H92.0023V10.28H95.9223V17.42C96.4263 16.748 97.0983 16.2253 97.9383 15.852C98.7783 15.46 99.7116 15.264 100.738 15.264ZM124.934 22.908C124.934 23.468 124.897 23.972 124.822 24.42H113.482C113.575 25.54 113.967 26.4173 114.658 27.052C115.349 27.6867 116.198 28.004 117.206 28.004C118.662 28.004 119.698 27.3787 120.314 26.128H124.542C124.094 27.6213 123.235 28.8533 121.966 29.824C120.697 30.776 119.138 31.252 117.29 31.252C115.797 31.252 114.453 30.9253 113.258 30.272C112.082 29.6 111.158 28.6573 110.486 27.444C109.833 26.2307 109.506 24.8307 109.506 23.244C109.506 21.6387 109.833 20.2293 110.486 19.016C111.139 17.8027 112.054 16.8693 113.23 16.216C114.406 15.5627 115.759 15.236 117.29 15.236C118.765 15.236 120.081 15.5533 121.238 16.188C122.414 16.8227 123.319 17.728 123.954 18.904C124.607 20.0613 124.934 21.396 124.934 22.908ZM120.874 21.788C120.855 20.78 120.491 19.9773 119.782 19.38C119.073 18.764 118.205 18.456 117.178 18.456C116.207 18.456 115.386 18.7547 114.714 19.352C114.061 19.9307 113.659 20.7427 113.51 21.788H120.874ZM134.683 31.252C133.19 31.252 131.846 30.9253 130.651 30.272C129.457 29.6 128.514 28.6573 127.823 27.444C127.151 26.2307 126.815 24.8307 126.815 23.244C126.815 21.6573 127.161 20.2573 127.851 19.044C128.561 17.8307 129.522 16.8973 130.735 16.244C131.949 15.572 133.302 15.236 134.795 15.236C136.289 15.236 137.642 15.572 138.855 16.244C140.069 16.8973 141.021 17.8307 141.711 19.044C142.421 20.2573 142.775 21.6573 142.775 23.244C142.775 24.8307 142.411 26.2307 141.683 27.444C140.974 28.6573 140.003 29.6 138.771 30.272C137.558 30.9253 136.195 31.252 134.683 31.252ZM134.683 27.836C135.393 27.836 136.055 27.668 136.671 27.332C137.306 26.9773 137.81 26.4547 138.183 25.764C138.557 25.0733 138.743 24.2333 138.743 23.244C138.743 21.7693 138.351 20.64 137.567 19.856C136.802 19.0533 135.859 18.652 134.739 18.652C133.619 18.652 132.677 19.0533 131.911 19.856C131.165 20.64 130.791 21.7693 130.791 23.244C130.791 24.7187 131.155 25.8573 131.883 26.66C132.63 27.444 133.563 27.836 134.683 27.836ZM149.571 17.896C150.075 17.0747 150.728 16.4307 151.531 15.964C152.352 15.4973 153.285 15.264 154.331 15.264V19.38H153.295C152.063 19.38 151.129 19.6693 150.495 20.248C149.879 20.8267 149.571 21.8347 149.571 23.272V31H145.651V15.488H149.571V17.896ZM171.811 15.488L162.207 38.336H158.035L161.395 30.608L155.179 15.488H159.575L163.579 26.324L167.639 15.488H171.811Z" fill="#1AC9C9"/>
<path d="M203.72 39.4999C193.386 39.4884 185.011 31.1005 185 20.7499C185.737 20.9584 185.984 21.048 186.75 21.0498C189.284 21.0684 191.664 19.8363 193.115 17.7554C194.412 15.8796 195.201 13.4955 194.36 11.375C194.897 11.471 195.442 11.5199 195.988 11.5212C198.416 11.5393 200.72 10.4506 202.25 8.56246C203.747 6.73013 204.333 4.316 203.841 2C214.18 2.03365 222.534 10.4556 222.5 20.8108C222.466 31.1661 214.058 39.5335 203.72 39.4999ZM205.148 33.0648C205.436 33.1888 205.746 33.2526 206.06 33.2523C207.006 33.2514 207.858 32.6805 208.22 31.8053C208.583 30.93 208.384 29.9223 207.716 29.2511C207.5 28.5 205.911 28.1842 205.29 28.1836C204.179 28.1862 203.993 29.352 203.772 30.4425C203.551 31.533 204.126 32.6288 205.148 33.0648ZM194.21 29.8905C194.585 30.0458 194.987 30.1255 195.393 30.1249C196.66 30.1245 197.8 29.3575 198.28 28.1836C198.76 27.0097 198.403 25.3899 197.5 24.5C196.917 23.9245 196.212 23.8736 195.393 23.8736C193.671 23.8757 192.276 25.2742 192.274 26.9992C192.275 28.2532 193.022 29.3862 194.173 29.8792H194.182H194.203L194.21 29.8905ZM211.864 25.1899C213.123 25.7191 214.578 25.3675 215.457 24.322C216.336 23.2765 216.435 21.7799 215.7 20.628C215.47 20.2692 215.169 19.9611 214.816 19.7224C213.847 19.067 212.594 19.0092 211.569 19.5726C210.544 20.136 209.919 21.2262 209.951 22.3969C209.982 23.5677 210.665 24.6226 211.718 25.1299H211.696L211.752 25.1543L211.79 25.1693H211.778C211.805 25.1779 211.831 25.1879 211.857 25.1993L211.864 25.1899ZM203.72 17.6243C202.973 17.623 202.395 17.7663 202.25 18.5C202.105 19.2337 202.25 20.5 202.25 20.5C202.941 20.7831 204.738 21.253 205.148 20.628C205.558 20.0031 205.343 18.5937 204.809 18.0705C204.67 17.9333 204.506 17.8239 204.326 17.748L204.292 17.733L204.242 17.7143C204.074 17.6544 203.898 17.6239 203.72 17.6243ZM210.739 9.81308C209.542 9.81011 208.536 10.7164 208.413 11.9098C208.291 13.1032 209.09 14.1958 210.264 14.4376C211.437 14.6794 212.602 13.9918 212.96 12.8468C213.317 11.7017 212.751 10.4715 211.649 10.0006H211.63C211.349 9.88001 211.046 9.8163 210.739 9.81308ZM189.68 16.0624C188.819 16.0624 188.121 15.3632 188.121 14.5006C188.121 13.638 188.819 12.9387 189.68 12.9387C190.541 12.9387 191.75 13.638 191.75 14.5006C191.749 15.3627 190.541 16.0614 189.68 16.0624ZM187.34 11.375C186.048 11.375 185 10.3256 185 9.03121C185 7.7368 186.048 6.68748 187.34 6.68748C188.632 6.68748 189.68 7.7368 189.68 9.03121C189.678 10.3248 188.631 11.3729 187.34 11.375ZM196.7 8.24934C195.407 8.24934 194.36 7.20001 194.36 5.9056C194.36 4.61119 195.407 3.56187 196.7 3.56187C197.992 3.56187 199.04 4.61119 199.04 5.9056C199.04 7.20032 197.992 8.25018 196.7 8.25122V8.24934ZM191.241 5.12561C190.38 5.12561 189.682 4.42672 189.682 3.56437C189.681 2.70202 190.379 2.00257 191.24 2.00187C192.101 2.00119 192.799 2.69952 192.801 3.56187C192.801 4.42477 192.103 5.12457 191.241 5.12561Z" fill="#0048FF"/>
</svg>
